<?xml version="1.0" standalone="no"?>
<!DOCTYPE svg PUBLIC "-//W3C//DTD SVG 20010904//EN"
 "http://www.w3.org/TR/2001/REC-SVG-20010904/DTD/svg10.dtd">
<svg version="1.0" xmlns="http://www.w3.org/2000/svg"
 width="1280.000000pt" height="1280.000000pt" viewBox="0 0 1280.000000 1280.000000"
 preserveAspectRatio="xMidYMid meet">
<metadata>
Created by potrace 1.14, written by Peter Selinger 2001-2017
</metadata>
<g transform="translate(0.000000,1280.000000) scale(0.100000,-0.100000)"
fill="#000000" stroke="none">
<path d="M400 11200 l0 -1200 6000 0 6000 0 0 1200 0 1200 -6000 0 -6000 0 0
-1200z"/>
<path d="M400 7800 l0 -1000 2400 0 2400 0 0 1000 0 1000 -2400 0 -2400 0 0
-1000z"/>
<path d="M7600 7800 l0 -1000 1400 0 1400 0 0 -1600 0 -1600 1000 0 1000 0 0
2600 0 2600 -2400 0 -2400 0 0 -1000z"/>
<path d="M400 3000 l0 -2600 6000 0 6000 0 0 1000 0 1000 -5000 0 -5000 0 0
600 0 600 2600 0 2600 0 0 1000 0 1000 -3600 0 -3600 0 0 -2600z"/>
</g>
</svg>
