<svg width="54" height="54" viewBox="0 0 54 54" fill="none" xmlns="http://www.w3.org/2000/svg">
  <path d="M53.0834 48.5836C53.0834 47.3949 52.6131 46.2548 51.7757 45.4119L25.3002 21.003C23.8118 22.3811 22.3793 23.8136 21.0027 25.3004L45.4117 51.7759C46.2546 52.6133 47.3947 53.0836 48.5833 53.0836C49.7768 53.0836 50.9214 52.6095 51.7653 51.7656C52.6093 50.9216 53.0834 49.777 53.0834 48.5836Z" stroke="white" stroke-width="1.5"/>
  <path d="M6.063 41.181L5.39878 40.8328C5.36748 40.8924 5.32216 40.9437 5.2667 40.982C5.21126 41.0203 5.14733 41.0446 5.08043 41.0528C5.01352 41.061 4.94563 41.0529 4.88256 41.029C4.81953 41.0052 4.76324 40.9665 4.71848 40.9162C4.71844 40.9162 4.71841 40.9161 4.71837 40.9161L1.13682 36.8854L1.13653 36.8851C1.08867 36.8313 1.05558 36.766 1.04046 36.6956C1.02536 36.6253 1.02872 36.5523 1.0502 36.4836C3.17128 29.731 6.59936 23.4613 11.1394 18.0313L11.5793 17.5051L11.0945 17.0201L9.21383 15.1382L9.21375 15.1381C9.13563 15.06 9.09175 14.954 9.09175 14.8436C9.09175 14.7332 9.13556 14.6273 9.21355 14.5492C9.21361 14.5491 9.21368 14.549 9.21375 14.549L14.5625 9.20601L14.5628 9.2058C14.6409 9.12768 14.7468 9.0838 14.8573 9.0838C14.9678 9.0838 15.0737 9.12766 15.1519 9.20575C15.1519 9.20576 15.1519 9.20578 15.1519 9.2058L17.0308 11.0882L17.5159 11.5742L18.0427 11.1338C23.4696 6.59711 29.7349 3.1708 36.4826 1.0495C36.551 1.02826 36.6238 1.02501 36.6938 1.04009C36.764 1.05519 36.8291 1.08818 36.8828 1.13586C36.8828 1.13588 36.8829 1.1359 36.8829 1.13592L40.9148 4.71869L40.9152 4.71905C40.9657 4.76384 41.0045 4.8202 41.0284 4.88331C41.0523 4.94641 41.0605 5.01437 41.0523 5.08135C41.0441 5.14832 41.0197 5.21229 40.9814 5.26778L41.5935 5.69129L40.9813 5.26778C40.9431 5.32308 40.892 5.3683 40.8325 5.39957C25.6687 13.3008 13.299 25.6706 5.39788 40.8345L6.063Z" stroke="white" stroke-width="1.5"/>
</svg>
