<svg width="62" height="58" viewBox="0 0 62 58" fill="none" xmlns="http://www.w3.org/2000/svg">
  <path d="M48 37.9999L54.331 34.1999C55.3148 33.6105 56.4893 33.427 57.606 33.6883C58.7227 33.9496 59.6939 34.6351 60.314 35.5999C60.9102 36.5286 61.1368 37.647 60.9491 38.7345C60.7614 39.822 60.173 40.7998 59.3 41.4749L48 50.2289C47.3431 50.7372 46.5878 51.1036 45.782 51.3049L25.527 56.3679C24.7295 56.5672 23.8996 56.6006 23.0887 56.4659C22.2778 56.3312 21.5032 56.0313 20.813 55.5849L6 45.9999H1V29.9999L10.958 28.3399C12.2809 28.1195 13.6396 28.3487 14.817 28.9909L24 33.9999L38.911 34.7849C40.0148 34.8428 41.0542 35.322 41.815 36.1237C42.5758 36.9255 43 37.9886 43 39.0939C43.0014 40.1651 42.6043 41.1985 41.8861 41.9932C41.1679 42.7879 40.1798 43.2872 39.114 43.3939L23 44.9999" stroke="white" stroke-width="1.5" stroke-miterlimit="10" stroke-linecap="square"/>
  <path d="M38 25C44.6274 25 50 19.6274 50 13C50 6.37258 44.6274 1 38 1C31.3726 1 26 6.37258 26 13C26 19.6274 31.3726 25 38 25Z" stroke="white" stroke-width="1.5" stroke-miterlimit="10" stroke-linecap="square"/>
  <path d="M37.9992 7.99956L32.9993 12.9995L37.9992 17.9995L42.9992 12.9995L37.9992 7.99956Z" stroke="white" stroke-width="1.5" stroke-miterlimit="10" stroke-linecap="square"/>
</svg>
